<svg width="500" height="467" viewBox="0 0 500 467" fill="none" xmlns="http://www.w3.org/2000/svg">
<path d="M80.9834 79.3745C84.3854 75.659 87.0038 71.7215 90.6555 68.0294C148.916 9.12533 237.101 -13.9856 316.734 8.42697C330.981 12.4366 344.28 17.9241 358.119 23.5674C349.687 26.3352 339.971 24.6675 331.189 25.2732C334.055 25.6064 347.936 26.2163 349.38 26.7789C345.865 26.8527 338.642 26.8223 335.468 27.3423C342.439 28.2492 366.884 27.0716 370.039 29.2681L370.067 30.164C442.389 72.525 480.861 138.825 489.195 220.319C489.572 224.002 488.863 235.795 490.335 237.614L490.755 237.685C489.952 241.544 488.897 245.778 487.301 249.398L488.765 251.897C487.948 255.3 487.163 258.647 486.423 262.067C469.623 427.951 280.963 520.01 138.746 434.473C134.039 431.645 124.689 425.833 121.013 422.162C114.14 416.824 106.483 410.705 99.9687 404.98C94.5723 400.208 80.8823 391.455 77.4547 387.334C71.2913 382.691 45.1541 340.11 41.5103 331.538C11.4701 260.873 15.4992 168.9 60.1846 105.056C62.1371 102.266 67.9059 94.7465 67.6278 91.7057C68.0368 90.6324 71.7098 88.6998 73.0071 87.9009L72.2894 85.8579C74.3533 84.5817 78.8572 80.9786 80.9834 79.3745ZM228.116 173.991C229.185 175.631 229.261 183.084 228.324 184.178C227.061 195.259 227.743 216.908 228.769 228.078C229.478 235.797 272.708 231.219 278.463 229.631C276.659 221.421 275.311 212.992 273.898 204.695L273.817 204.962C271.675 212.284 271.734 217.895 270.675 225.485C260.349 226.29 244.617 226.434 234.377 226.196C232.508 211.666 234.647 195.554 233.305 181.682L233.772 178.392C233.416 172.835 234.732 165.667 234.039 162.785C232.029 160.893 230.826 161.131 227.874 160.482L228.116 173.991Z" fill="#FDBE5D"/>
<path d="M483.069 267.147C484.372 265.355 484.755 263.904 486.427 262.067C469.627 427.952 280.967 520.01 138.75 434.473C134.043 431.645 124.693 425.833 121.017 422.162C114.144 416.824 106.486 410.705 99.9727 404.981C101.136 404.806 103.347 404.724 104.605 404.64C106.496 405.555 113.922 408.989 115.262 409.908C144.341 421.528 178.051 431.163 209.392 433.096C237.054 434.803 268.825 436.64 296.039 432.003C374.927 418.556 438.745 358.18 472.495 287.695C475.326 281.785 479.52 272.201 483.069 267.147Z" fill="#FDBE5D"/>
<path d="M99.9727 404.982C101.136 404.808 103.347 404.726 104.605 404.642C106.496 405.557 113.922 408.991 115.262 409.91C113.535 412.192 113.467 411.529 113.581 413.851C116.337 417.127 119.864 418.629 121.017 422.164C114.144 416.826 106.486 410.707 99.9727 404.982Z" fill="#F6B343"/>
<path d="M80.9844 79.3745C84.3864 75.659 87.0048 71.7215 90.6565 68.0294C148.917 9.12533 237.102 -13.9856 316.735 8.42697C330.982 12.4366 344.281 17.9241 358.12 23.5674C349.688 26.3352 339.972 24.6675 331.19 25.2732C245.67 24.6128 165.028 54.781 84.4128 79.6151L80.9844 79.3745Z" fill="#FDBE5D"/>
<path d="M481.509 264.093L483.063 267.147C479.513 272.2 475.32 281.784 472.488 287.695C438.738 358.179 374.92 418.556 296.033 432.002C268.818 436.639 237.048 434.803 209.385 433.096C178.045 431.163 144.334 421.528 115.255 409.908C113.915 408.989 106.49 405.555 104.598 404.64L104.402 402.268L112.47 405.989C151.487 423.602 179.065 426.61 220.257 431.081C345.631 444.685 429.779 379.35 481.509 264.093Z" fill="#0A0403"/>
<path d="M84.415 79.6163C165.03 54.7821 245.672 24.614 331.193 25.2743C334.058 25.6076 347.939 26.2175 349.383 26.7801C345.868 26.8539 338.646 26.8235 335.471 27.3435C263.138 27.8244 202.633 44.6444 134.37 66.5251C118.289 71.6796 100.686 76.5273 84.9737 81.9472L84.207 81.2421L84.415 79.6163Z" fill="#0A0403"/>
<path d="M77.457 387.334C81.6117 389.917 103.309 401.084 104.407 402.268L104.603 404.64C103.345 404.724 101.134 404.806 99.971 404.981C94.5746 400.208 80.8846 391.455 77.457 387.334Z" fill="#824C12"/>
<path d="M487.305 249.399L488.769 251.898C487.953 255.301 487.167 258.648 486.427 262.068C484.755 263.905 484.372 265.356 483.069 267.147L481.516 264.094L487.305 249.399Z" fill="#472005"/>
<path d="M72.2891 85.8584C74.353 84.5822 78.8569 80.9791 80.9831 79.375L84.4115 79.6156L84.2035 81.2414L84.9702 81.9465L73.0068 87.9014L72.2891 85.8584Z" fill="#553F2D"/>
<path d="M199.553 171.991C200.729 165.963 201.126 154.095 203.894 148.915C204.242 148.263 205.5 148.471 206.449 148.467C211.286 151.218 206.525 166.338 205 170.948C207.581 171.822 217.187 171.779 220.784 172.103C216.402 184.414 218.995 197.996 209.493 214.11C214.2 217.377 218.167 220.486 222.637 224.029C221.107 226.105 219.524 228.202 218.029 230.298C214.337 226.604 210.218 222.662 206.899 218.68C200.913 227.239 195.514 233.388 186.457 238.65C191.604 230.176 197.703 225.759 203.692 215.26C200.115 212.773 197.502 210.697 194.144 207.911L193.537 207.429C192.765 205.081 198.359 179.621 199.22 175.174C195.962 175.242 191.756 175.74 189.018 174.314L189.19 173.395C192.259 171.869 196.06 172.093 199.553 171.991Z" fill="#0A0403"/>
<path d="M199.555 171.991C200.73 165.963 201.128 154.095 203.895 148.915C204.244 148.263 205.502 148.471 206.45 148.467C211.288 151.218 206.527 166.338 205.002 170.948C203.533 174.603 203.322 173.757 204.037 177.346C203.448 181.689 199.982 200.492 198.065 203.772C196.723 205.647 196.118 206.746 194.146 207.911L193.539 207.429C192.766 205.081 198.36 179.621 199.221 175.174C195.964 175.242 191.758 175.74 189.02 174.314L189.192 173.395C192.261 171.869 196.061 172.093 199.555 171.991Z" fill="url(#paint0_linear_883_24917)"/>
<path d="M204.038 177.347C206.214 172.843 209.08 174.204 213.858 174.074C211.934 188.825 211.204 197.261 205.407 211.148C202.288 208.888 199.336 207.368 198.066 203.772C199.984 200.492 203.449 181.689 204.038 177.347Z" fill="#FDBE5D"/>
<path d="M243.748 147.696C245.381 147.946 249.715 148.341 250.714 149.268C250.351 157.482 249.92 165.595 250.01 173.818C254.761 172.488 262.091 170.46 267.025 171.107L268.257 171.937C268.272 177.918 267.025 202.336 264.356 206.77C260.709 207.415 253.419 203.768 250.137 201.945C250.134 206.059 250.717 210.991 248.924 214.421C247.086 215.878 247.922 215.586 245.772 215.731C240.826 211.787 246.023 184.158 243.313 178.741L233.305 181.684L233.772 178.393C236.695 177.557 240.708 176.822 243.77 176.18L244.085 164.674L243.748 147.696Z" fill="url(#paint1_linear_883_24917)"/>
<path d="M244.085 164.673L245.156 164.899L245.549 164.491C246.424 166.895 245.499 175.229 244.664 177.71C244.225 177.997 243.562 178.343 243.313 178.74L233.305 181.683L233.772 178.393C236.695 177.557 240.708 176.821 243.77 176.179L244.085 164.673Z" fill="#0A0403"/>
<path d="M257.84 174.54C259.492 174.248 259.706 174.244 261.344 174.604C262.34 177.782 261.876 197.283 259.041 200.689C258.822 200.953 256.719 200.665 256.083 200.613L250.758 200.39C249.474 198.48 249.852 180.537 250.327 177.384C252.174 175.656 255.306 175.178 257.84 174.54Z" fill="#FDBE5D"/>
<path d="M227.876 160.483C230.828 161.132 232.031 160.894 234.041 162.786C234.734 165.668 233.418 172.836 233.774 178.393L233.307 181.684C234.649 195.556 232.51 211.667 234.379 226.198C244.619 226.435 260.351 226.291 270.678 225.487C271.736 217.896 271.677 212.286 273.819 204.963L273.9 204.696C275.313 212.993 276.661 221.423 278.466 229.632C272.71 231.221 229.481 235.799 228.771 228.08C227.745 216.909 227.063 195.261 228.326 184.179C229.263 183.085 229.187 175.632 228.118 173.992L227.876 160.483Z" fill="url(#paint2_linear_883_24917)"/>
<path d="M362.348 179.708C366.784 179.482 383.266 178.075 386.081 179.956C383.992 182.23 378.101 181.644 375.042 181.592C371.096 182.184 369.12 182.267 365.126 182.287C365.216 194.561 366.604 227.543 363.243 237.242C359.378 236.028 345.424 232.264 343.414 229.444C346.299 227.26 354.816 228.458 358.79 228.743C358.821 223.114 359.854 185.092 357.712 182.458L355.869 181.992L355.753 181.518C357.377 181.247 357.783 180.868 359.089 179.963L362.348 179.708Z" fill="url(#paint3_linear_883_24917)"/>
<path d="M362.348 179.708C366.783 179.482 383.266 178.075 386.08 179.956C383.992 182.23 378.101 181.644 375.041 181.592C368.872 180.736 367.372 182.757 362.348 179.708Z" fill="#0A0403"/>
<path d="M106.177 163.848C107.759 164.99 107.305 164.389 108.034 166.08C105.895 168.981 70.8384 189.257 65.7783 191.773C71.4593 194.92 107.985 214.961 107.549 219.053L105.948 219.726C98.4015 216.423 65.2691 196.575 59.1719 191.665C68.6191 185.027 96.0898 168.787 106.177 163.848Z" fill="#0A0403"/>
<path d="M404.814 163.611C410.483 165.126 445.877 187.222 452.919 191.723C444.27 198.46 418.274 213.088 407.702 219.362C406.447 219.654 406.039 219.466 404.741 219.206L404.285 217.91C407.004 213.716 439.893 195.27 446.369 191.829C441.872 189.802 405.425 168.48 404.004 166.088L404.814 163.611Z" fill="#0A0403"/>
<path d="M291.738 210.421C295.048 204.497 309.104 187.202 314.033 180.627C316.757 185.587 314.663 182.194 314.992 187.501C316.873 187.948 317.182 188.104 318.871 188.985C317.579 195.747 318.195 233.655 317.092 235.12C315.147 236.049 314.627 236.458 312.504 236.032C312.24 235.683 311.922 235.258 311.547 234.762C311.739 222.457 311.711 204.248 311.73 192.463C305.327 198.991 299.509 205.627 291.738 210.421Z" fill="#0A0403"/>
<path d="M159.751 153.595C162.113 154.14 161.742 153.692 163.198 155.235C162.717 157.151 161.238 162.379 160.431 164.027C154.053 177.043 143.577 221.193 135.234 230.304L132.667 229.369L132.32 228.259C134.98 218.656 155.473 159.635 159.751 153.595Z" fill="#0A0403"/>
<path d="M187.172 268.126C201.498 267.484 206.408 282.727 192.457 291.263C178.775 292.615 174.311 275.755 187.172 268.126Z" fill="#291001"/>
<path d="M187.076 270.151C199.386 269.768 202.753 281.82 191.917 289.046C181.791 290.934 177.894 277.994 187.076 270.151Z" fill="#FDBE5D"/>
<path d="M324.438 268.239C338.68 267.436 349.899 274.997 339.349 288.708C334.798 291.762 330.008 291.424 324.576 291.66C323.911 284.51 324.252 275.425 324.438 268.239Z" fill="#291001"/>
<path d="M327.121 270.098C338.957 269.96 345.053 277.022 337.318 287.361C334.901 288.708 329.573 289.234 326.617 289.671C326.612 284.147 326.153 275.098 327.121 270.098Z" fill="#FDBE5D"/>
<path d="M209.469 268.305C220.929 267.35 232.698 270.849 221.497 283.081C223.067 285.467 224.694 288.304 225.098 291.132C223.567 290.932 223.684 290.481 222.436 288.949C220.418 285.492 218.988 282.588 214.559 282.577C212.172 284.081 211.251 287.988 210.361 290.732C208.787 287.938 209.152 272.122 209.469 268.305Z" fill="#291001"/>
<path d="M211.779 270.194C220.307 269.955 225.746 270.273 221.724 280.33C219.62 280.97 214.221 280.846 211.723 280.868C211.785 277.31 211.777 273.755 211.779 270.194Z" fill="#FDBE5D"/>
<path d="M304.358 267.787C314.826 268.179 318.606 272.416 311.857 281.332C309.695 284.188 316.18 287.515 314.074 291.133C312.056 289.927 311.896 288.786 310.649 286.532C309.715 284.665 306.968 282.219 304.84 281.935C300.877 283.67 302.58 286.845 300.393 290.848L299.332 290.766C298.411 288.245 298.828 272.782 299.222 269.337C301.049 267.855 301.758 268.176 304.358 267.787Z" fill="#291001"/>
<path d="M301.232 269.921C306.037 269.904 310.121 269.439 312.699 274.065C312.986 276.724 312.451 277.44 311.187 279.865C309.054 281.068 303.751 280.995 301.032 281.113C301.021 277.33 301.111 273.701 301.232 269.921Z" fill="#FDBE5D"/>
<path d="M332.167 312.314C338.359 312.167 343.4 311.415 347.985 316.402C350.124 321.14 346.823 324.253 343.361 326.977C344.931 328.752 347.737 331.865 347.855 334.279L346.963 334.471L345.573 333.394C343.738 330.76 340.484 325.152 337.073 326.211C335.24 328.543 334.711 331.29 333.923 334.149L332.93 333.332C331.441 328.338 331.973 317.706 332.167 312.314Z" fill="#0A0403"/>
<path d="M334.325 313.932C339.048 313.982 343.608 313.557 346.144 318.084C346.338 320.611 346.011 321.096 344.798 323.372C341.519 324.837 338.105 324.316 334.488 324.118C334.269 320.622 334.303 317.428 334.325 313.932Z" fill="#FDBE5D"/>
<path d="M263.503 267.317L263.947 267.901C264.049 268.264 264.271 269.363 264.099 269.675C261.859 273.794 258.887 291.379 253.347 289.719C250.603 286.026 250.448 283.102 249.714 278.617C247.82 283.262 245.39 287.618 243.028 292.041C240.412 287.381 233.729 273.222 233.336 268.382L234.308 268.312C236.12 270.019 237.55 274.566 238.525 277.079L243.514 289.342L246.957 278.569C246.337 276.391 245.581 274.166 244.882 272.005L246.138 272.053C245.774 271.163 245.39 270.985 244.646 270.287L245.442 270.354L244.968 271.18C245.207 269.65 245.371 270.087 244.746 268.96C246.012 271.042 247.01 272.949 248.878 274.538C250.862 273.54 250.51 271.509 252.101 268.517C255.284 270.653 249.694 277.498 250.471 279.082C252.067 282.327 253.018 284.989 254.136 288.468C256.762 284.031 260.556 273.253 263.503 267.317Z" fill="#291001"/>
<path d="M321.51 146.684C323.089 147.323 326.365 150.002 326.967 151.695C322.636 156.289 305.146 171.265 300.096 175.038C298.318 176.229 298.796 176.304 296.995 176.213L296.84 175.21C298.146 173.146 299.362 171.738 301.062 170.004C308.411 162.52 315.202 155.07 321.51 146.684Z" fill="#0A0403"/>
<path d="M188.529 321.405C189.313 319.461 191.411 314.047 193.003 312.914C192.733 317.03 187.605 333.358 183.877 335.018C181.951 333.31 179.775 325.49 179.026 322.819C176.66 328.704 175.885 330.482 172.407 335.863C170.286 330.851 162.457 315.802 162.987 311.579C166.874 313.514 168.909 325.349 171.787 329.84L173.164 330.136C175.454 327.842 176.204 324.366 177.367 321.126C176.088 319.323 173.703 314.762 174.208 312.548C175.866 313.098 176.998 316.075 178.048 317.968L179.105 317.951C179.958 316.18 180.533 314.774 181.236 312.937L182.425 312.844C183.381 315.678 180.02 320 180.385 321.98C180.948 325.045 182.921 329.919 183.929 333.308L188.529 321.405Z" fill="#291001"/>
<path d="M279.968 267.661C282.996 269.701 289.315 286.147 290.022 290.145C285.411 287.167 288.243 283.04 280.86 283.364L278.226 283.037C274.443 284.555 272.903 290.133 269.773 294.692C271.853 285.187 276.728 276.907 279.968 267.661Z" fill="#291001"/>
<path d="M279.605 272.607C282.211 273.754 284.922 278.718 283.34 281.625C281.392 281.634 279.943 281.803 278.195 280.946C277.089 278.653 278.698 275.475 279.605 272.607Z" fill="#FDBE5D"/>
<path d="M239.898 311.558C241.95 312.882 241.678 319.682 241.806 322.285L254.526 322.367C254.532 320.127 254.262 314.465 255.934 313.099C257.802 317.217 257.487 331.097 256.55 335.748L255.148 334.36C254.205 331.717 254.58 327.7 254.659 324.784L241.764 324.559C241.886 327.508 241.85 329.275 241.622 332.221L241.551 331.872C241.268 332.576 240.874 333.283 240.875 334.047C238.895 329.458 239.212 316.682 239.898 311.558Z" fill="#291001"/>
<path d="M308.01 312.53C314.202 312.059 316.578 312.349 322.694 313.076C317.757 314.062 311.984 314.15 309.164 317.877L309.505 319.55C313.701 324.68 316.637 320.601 320.895 322.728L320.563 324.026C318.886 324.919 313.338 325.032 311.137 325.176C309.904 326.193 309.386 328.537 309.583 330.106C312.691 333.698 317.245 331.593 322.685 332.915L323.127 333.647C320.653 335.703 310.934 334.723 307.684 334.458C307.743 327.176 307.734 319.804 308.01 312.53Z" fill="#472005"/>
<path d="M295.932 322.348C296 319.92 295.828 315.52 297.01 313.536C298.905 316.317 298.513 331.645 297.767 335.409L296.619 334.394C295.808 332.011 296.05 327.104 296.053 324.394C291.069 324.453 287.075 324.557 282.121 325.025C282.298 327.535 282.771 331.935 282.374 334.262L281.243 334.794L280.32 333.868C279.484 328.039 279.974 318.224 280.117 311.979L281.955 312.781C283.182 314.582 282.304 319.813 282.068 322.275L295.932 322.348Z" fill="#291001"/>
<path d="M364.476 154.454C367.671 154.293 376.399 152.884 377.742 155.667C375.191 157.478 351.684 157.711 346.691 157.88C341.312 158.302 339.08 158.735 333.828 157.146L334.25 156.43C340.2 154.511 357.141 154.721 364.476 154.454Z" fill="#0A0403"/>
<path d="M322.504 166.874C324.866 168.464 327.486 170.32 329.907 171.759C324.522 175.675 319.439 182.282 314.995 187.5C314.666 182.193 316.76 185.587 314.035 180.626C316.177 177.176 320.838 170.235 322.504 166.874Z" fill="url(#paint4_linear_883_24917)"/>
<path d="M157.664 268.18C160.582 268.087 168.826 267.611 171.215 268.191L171.752 269.152C168.623 272.116 163.852 268.724 160.215 270.851C159.374 272.395 159.519 274.023 159.488 275.798C162.1 281.097 166.093 276.961 171.038 279.795C168.365 280.914 162.722 280.654 159.7 280.649C159.936 285.136 159.977 286.331 159.05 290.717L158.637 290.543C157.032 282.61 157.454 276.203 157.664 268.18Z" fill="#291001"/>
<path d="M355.868 181.99C353.382 182.991 329.782 183.558 327.384 182.775L326.812 181.648L327.677 180.519C332.92 179.692 353.349 179.68 359.087 179.961C357.782 180.866 357.376 181.245 355.752 181.516L355.868 181.99Z" fill="#0A0403"/>
<path d="M211.996 312.844C215.407 312.157 227.333 311.906 230.447 313.295C228.654 314.326 225.515 314.151 223.334 314.21C223.131 318.571 223.186 323.11 223.177 327.49C223.249 329.868 223.718 333.158 221.897 334.775C219.988 332.246 220.729 318.399 220.795 314.633C217.489 314.489 214.671 314.684 211.996 312.844Z" fill="#291001"/>
<path d="M203.101 311.464C206.514 313.706 204.91 330.82 204.64 335.463C201.386 334.055 202.554 315.098 203.101 311.464Z" fill="#291001"/>
<path d="M228.119 173.991C229.188 175.631 229.263 183.084 228.326 184.178C226.383 183.028 224.311 185.02 220.582 183.836C221.671 181.977 225.633 181.233 227.869 179.356L228.119 173.991Z" fill="#0A0403"/>
<path d="M73.0018 385.231C54.4868 373.965 35.6006 353.851 24.0987 335.742C-9.35838 283.073 -3.98393 213.965 16.0304 157.406C27.5556 124.836 43.3407 104.041 72.2931 85.8594L73.0108 87.9024C71.7136 88.7013 68.0405 90.6338 67.6315 91.7072C51.802 101.327 35.7576 118.694 27.6637 135.611C-7.35318 208.801 -12.5696 308.54 53.044 366.739C59.4413 372.413 67.4134 378.96 73.0018 385.231Z" fill="#0A0403" fill-opacity="0.988235"/>
<path d="M385.629 26.4492C417.555 29.3909 447.23 37.0988 468.871 63.9664C504.647 108.382 503.316 172.654 495.424 226.264C494.093 235.299 491.759 243.421 488.767 251.898L487.304 249.399C488.9 245.779 489.955 241.545 490.757 237.686C502.556 184.709 503.761 111.085 467.599 66.3818C445.729 39.3475 418.172 32.1021 385.275 29.2765C383.389 28.9413 381.146 28.7615 379.738 27.5572C381.106 26.4681 383.788 26.556 385.629 26.4492Z" fill="#0A0403"/>
<path d="M358.118 23.5684C367.465 25.3685 377.71 24.9868 385.625 26.4494C383.784 26.5562 381.102 26.4683 379.734 27.5574C381.141 28.7617 383.384 28.9415 385.27 29.2767C381.425 29.1807 372.92 28.4088 370.066 30.165L370.037 29.2691C366.882 27.0726 342.437 28.2502 335.466 27.3433C338.641 26.8233 345.863 26.8537 349.378 26.7799C347.934 26.2173 334.053 25.6074 331.188 25.2741C339.969 24.6685 349.685 26.3362 358.118 23.5684Z" fill="#553F2D"/>
<defs>
<linearGradient id="paint0_linear_883_24917" x1="203.003" y1="178.042" x2="188.136" y2="175.355" gradientUnits="userSpaceOnUse">
<stop/>
<stop offset="1" stop-color="#170402"/>
</linearGradient>
<linearGradient id="paint1_linear_883_24917" x1="266.898" y1="180.921" x2="243.909" y2="181.594" gradientUnits="userSpaceOnUse">
<stop/>
<stop offset="1" stop-color="#1E0D00"/>
</linearGradient>
<linearGradient id="paint2_linear_883_24917" x1="213.795" y1="181.436" x2="274.434" y2="229.042" gradientUnits="userSpaceOnUse">
<stop stop-opacity="0.988235"/>
<stop offset="1" stop-color="#190500"/>
</linearGradient>
<linearGradient id="paint3_linear_883_24917" x1="345.842" y1="200.233" x2="373.044" y2="217.447" gradientUnits="userSpaceOnUse">
<stop stop-color="#0B0000"/>
<stop offset="1" stop-color="#242109"/>
</linearGradient>
<linearGradient id="paint4_linear_883_24917" x1="314.334" y1="176.686" x2="325.895" y2="174.255" gradientUnits="userSpaceOnUse">
<stop stop-color="#080200"/>
<stop offset="1" stop-color="#2C0F00"/>
</linearGradient>
</defs>
</svg>
