<?xml version="1.0" encoding="utf-8" ?><svg xmlns="http://www.w3.org/2000/svg" xmlns:xlink="http://www.w3.org/1999/xlink" width="200" height="200" viewBox="0 0 200 200"><path fill="#FDBE5D" d="M40.7852 47.4895C41.9939 46.1706 42.9242 44.7729 44.2216 43.4623C64.9209 22.5531 96.2524 14.3494 124.545 22.3052C129.607 23.7285 134.332 25.6764 139.249 27.6796C136.253 28.6621 132.801 28.0701 129.681 28.2851C130.699 28.4034 135.631 28.6199 136.144 28.8196C134.895 28.8458 132.329 28.835 131.201 29.0196C133.678 29.3415 142.363 28.9235 143.484 29.7032L143.494 30.0212C169.189 45.0581 182.858 68.5927 185.819 97.5207C185.953 98.8281 185.701 103.014 186.224 103.66L186.373 103.685C186.088 105.055 185.713 106.558 185.146 107.843L185.666 108.73C185.376 109.938 185.097 111.126 184.834 112.34C178.865 171.224 111.836 203.902 61.3077 173.539C59.6355 172.535 56.3135 170.472 55.0074 169.169C52.5653 167.274 49.8448 165.102 47.5305 163.07C45.6132 161.376 40.7493 158.269 39.5315 156.806C37.3417 155.158 28.0554 140.043 26.7608 137C16.0878 111.916 17.5193 79.2683 33.3956 56.6056C34.0893 55.6154 36.1389 52.9461 36.0401 51.8667C36.1854 51.4857 37.4904 50.7997 37.9513 50.5161L37.6963 49.7909C38.4296 49.3379 40.0298 48.0589 40.7852 47.4895ZM93.0601 81.0756C93.4399 81.6577 93.4668 84.3033 93.1338 84.6916C92.6851 88.6252 92.9274 96.3098 93.2921 100.275C93.5441 103.015 108.903 101.39 110.948 100.826C110.307 97.912 109.828 94.9197 109.326 91.9745L109.297 92.0694C108.536 94.6686 108.557 96.6602 108.181 99.3545C104.512 99.64 98.9225 99.6912 95.2845 99.6069C94.6204 94.449 95.3805 88.7299 94.9036 83.8058L95.0696 82.6378C94.943 80.6652 95.4105 78.1207 95.1644 77.0976C94.4502 76.4262 94.0227 76.5106 92.9739 76.2803L93.0601 81.0756Z"/><path fill="#FDBE5D" d="M183.641 114.143C184.104 113.507 184.24 112.992 184.834 112.34C178.865 171.224 111.836 203.902 61.3077 173.539C59.6355 172.535 56.3135 170.472 55.0074 169.169C52.5653 167.274 49.8448 165.102 47.5305 163.07C47.9438 163.008 48.7294 162.979 49.1762 162.949C49.8482 163.274 52.4864 164.493 52.9625 164.819C63.294 168.944 75.271 172.364 86.406 173.05C96.2343 173.656 107.522 174.308 117.191 172.662C145.219 167.889 167.893 146.457 179.884 121.437C180.89 119.339 182.38 115.937 183.641 114.143Z"/><path fill="#F6B343" d="M47.5305 163.07C47.9438 163.008 48.7294 162.979 49.1762 162.949C49.8482 163.274 52.4864 164.493 52.9625 164.819C52.3489 165.629 52.325 165.394 52.3655 166.218C53.3445 167.381 54.5978 167.914 55.0074 169.169C52.5653 167.274 49.8448 165.102 47.5305 163.07Z"/><path fill="#FDBE5D" d="M40.7852 47.4895C41.9939 46.1706 42.9242 44.7729 44.2216 43.4623C64.9209 22.5531 96.2524 14.3494 124.545 22.3052C129.607 23.7285 134.332 25.6764 139.249 27.6796C136.253 28.6621 132.801 28.0701 129.681 28.2851C99.2964 28.0507 70.6451 38.7595 42.0033 47.5749L40.7852 47.4895Z"/><path fill="#0A0403" d="M183.089 113.059L183.641 114.143C182.38 115.937 180.89 119.339 179.884 121.437C167.893 146.457 145.219 167.889 117.191 172.662C107.522 174.308 96.2343 173.656 86.406 173.05C75.271 172.364 63.294 168.944 52.9625 164.819C52.4864 164.493 49.8482 163.274 49.1762 162.949L49.1066 162.107L51.9729 163.428C65.8354 169.68 75.6336 170.748 90.2686 172.335C134.813 177.164 164.71 153.972 183.089 113.059Z"/><path fill="#0A0403" d="M42.0033 47.5749C70.6451 38.7595 99.2964 28.0507 129.681 28.2851C130.699 28.4034 135.631 28.6199 136.144 28.8196C134.895 28.8458 132.329 28.835 131.201 29.0196C105.502 29.1903 84.005 35.1609 59.752 42.9279C54.0384 44.7576 47.7843 46.4784 42.2018 48.4023L41.9294 48.152L42.0033 47.5749Z"/><path fill="#824C12" d="M39.5315 156.806C41.0076 157.723 48.7163 161.687 49.1066 162.107L49.1762 162.949C48.7294 162.979 47.9438 163.008 47.5305 163.07C45.6132 161.376 40.7493 158.269 39.5315 156.806Z"/><path fill="#472005" d="M185.146 107.843L185.666 108.73C185.376 109.938 185.097 111.126 184.834 112.34C184.24 112.992 184.104 113.507 183.641 114.143L183.089 113.059L185.146 107.843Z"/><path fill="#553F2D" d="M37.6963 49.7909C38.4296 49.3379 40.0298 48.0589 40.7852 47.4895L42.0033 47.5749L41.9294 48.152L42.2018 48.4023L37.9513 50.5161L37.6963 49.7909Z"/><path fill="#0A0403" d="M82.9108 80.3647C83.3284 78.225 83.4696 74.0124 84.4529 72.1735C84.5767 71.942 85.0236 72.0159 85.3607 72.0147C87.0794 72.9911 85.3878 78.3583 84.846 79.9945C85.763 80.3047 89.176 80.2895 90.454 80.4045C88.8969 84.7748 89.8184 89.5959 86.4422 95.3157C88.1145 96.4757 89.524 97.5792 91.1123 98.8368C90.5686 99.5736 90.0061 100.318 89.4749 101.062C88.1634 99.7509 86.7 98.3514 85.5208 96.938C83.3937 99.9763 81.4757 102.159 78.2578 104.027C80.0865 101.019 82.2533 99.4509 84.3813 95.724C83.1102 94.8413 82.1821 94.1042 80.989 93.1153L80.7734 92.9442C80.4989 92.1109 82.4864 83.0732 82.7922 81.4949C81.6349 81.5187 80.1405 81.6955 79.1677 81.1894L79.2289 80.8632C80.3192 80.3215 81.6695 80.4012 82.9108 80.3647Z"/><defs><linearGradient id="gradient_0" gradientUnits="userSpaceOnUse" x1="84.13591" y1="82.51265" x2="78.853989" y2="81.557137"><stop offset="0" stop-color="black"/><stop offset="1" stop-color="#170402"/></linearGradient></defs><path fill="url(#gradient_0)" d="M82.9108 80.3647C83.3284 78.225 83.4696 74.0124 84.4529 72.1735C84.5767 71.942 85.0236 72.0159 85.3607 72.0147C87.0794 72.9911 85.3878 78.3583 84.846 79.9945C84.3241 81.2919 84.2494 80.9919 84.5032 82.2659C84.2939 83.8072 83.0627 90.4819 82.3815 91.6462C81.9045 92.3116 81.6898 92.702 80.989 93.1153L80.7734 92.9442C80.4989 92.1109 82.4864 83.0732 82.7922 81.4949C81.6349 81.5187 80.1405 81.6955 79.1677 81.1894L79.2289 80.8632C80.3192 80.3215 81.6695 80.4012 82.9108 80.3647Z"/><path fill="#FDBE5D" d="M84.5032 82.2659C85.2763 80.6671 86.2946 81.1502 87.992 81.1041C87.3087 86.3403 87.0493 89.335 84.9894 94.2643C83.8814 93.462 82.8325 92.9224 82.3815 91.6462C83.0627 90.4819 84.2939 83.8072 84.5032 82.2659Z"/><defs><linearGradient id="gradient_1" gradientUnits="userSpaceOnUse" x1="106.83886" y1="83.535149" x2="98.671356" y2="83.774261"><stop offset="0" stop-color="black"/><stop offset="1" stop-color="#1E0D00"/></linearGradient></defs><path fill="url(#gradient_1)" d="M98.614 71.7412C99.1941 71.8298 100.734 71.97 101.089 72.2992C100.96 75.2147 100.807 78.0947 100.839 81.0138C102.527 80.5417 105.131 79.8217 106.884 80.0513L107.322 80.3459C107.327 82.4689 106.884 91.1368 105.936 92.7105C104.64 92.9396 102.05 91.645 100.884 90.9978C100.883 92.4581 101.09 94.2088 100.453 95.4265C99.7998 95.9438 100.097 95.8399 99.3332 95.8916C97.576 94.4914 99.4223 84.6839 98.4593 82.761L94.9036 83.8058L95.0696 82.6378C96.1083 82.341 97.534 82.0798 98.6219 81.8521L98.7339 77.7677L98.614 71.7412Z"/><path fill="#0A0403" d="M98.7339 77.7677L99.1144 77.8478L99.2538 77.7032C99.5646 78.5563 99.2361 81.5149 98.9396 82.3956C98.7836 82.4975 98.548 82.62 98.4593 82.761L94.9036 83.8058L95.0696 82.6378C96.1083 82.341 97.534 82.0798 98.6219 81.8521L98.7339 77.7677Z"/><path fill="#FDBE5D" d="M103.62 81.2698C104.207 81.1662 104.283 81.1646 104.865 81.2925C105.219 82.4206 105.054 89.3429 104.047 90.5518C103.969 90.6457 103.222 90.5432 102.996 90.5249L101.104 90.4457C100.648 89.7677 100.782 83.3984 100.951 82.2793C101.607 81.6658 102.72 81.4962 103.62 81.2698Z"/><defs><linearGradient id="gradient_2" gradientUnits="userSpaceOnUse" x1="87.971146" y1="83.717964" x2="109.50066" y2="100.63548"><stop offset="0" stop-color="black" stop-opacity="0.98823529"/><stop offset="1" stop-color="#190500"/></linearGradient></defs><path fill="url(#gradient_2)" d="M92.9739 76.2803C94.0227 76.5106 94.4502 76.4262 95.1644 77.0976C95.4105 78.1207 94.943 80.6652 95.0696 82.6378L94.9036 83.8058C95.3805 88.7299 94.6204 94.449 95.2845 99.6069C98.9225 99.6912 104.512 99.64 108.181 99.3545C108.557 96.6602 108.536 94.6686 109.297 92.0694L109.326 91.9745C109.828 94.9197 110.307 97.912 110.948 100.826C108.903 101.39 93.5441 103.015 93.2921 100.275C92.9274 96.3098 92.6851 88.6252 93.1338 84.6916C93.4668 84.3033 93.4399 81.6577 93.0601 81.0756L92.9739 76.2803Z"/><defs><linearGradient id="gradient_3" gradientUnits="userSpaceOnUse" x1="134.88577" y1="90.389915" x2="144.54521" y2="96.508415"><stop offset="0" stop-color="#0B0000"/><stop offset="1" stop-color="#242109"/></linearGradient></defs><path fill="url(#gradient_3)" d="M140.75 83.1041C142.326 83.0239 148.182 82.5244 149.182 83.1921C148.44 83.9994 146.347 83.7915 145.26 83.773C143.858 83.9829 143.156 84.0125 141.737 84.0195C141.769 88.3767 142.262 100.084 141.068 103.527C139.695 103.096 134.737 101.76 134.023 100.759C135.048 99.9838 138.074 100.409 139.486 100.51C139.497 98.5119 139.864 85.0152 139.103 84.0803L138.448 83.9148L138.407 83.7465C138.984 83.6503 139.128 83.5159 139.592 83.1947L140.75 83.1041Z"/><path fill="#0A0403" d="M140.75 83.1041C142.326 83.0239 148.182 82.5244 149.182 83.1921C148.44 83.9994 146.347 83.7915 145.26 83.773C143.068 83.4689 142.535 84.1864 140.75 83.1041Z"/><path fill="#0A0403" d="M49.7353 77.4747C50.2973 77.8801 50.1358 77.6668 50.3948 78.2671C49.635 79.2969 37.1797 86.4942 35.3819 87.3875C37.4003 88.5045 50.3775 95.6186 50.2225 97.0709L49.6538 97.3098C46.9726 96.1373 35.201 89.0918 33.0347 87.3492C36.3912 84.9927 46.1513 79.228 49.7353 77.4747Z"/><path fill="#0A0403" d="M155.838 77.3907C157.852 77.9283 170.427 85.7717 172.929 87.3696C169.856 89.7608 160.62 94.9533 156.864 97.1807C156.418 97.2842 156.273 97.2176 155.812 97.1253L155.65 96.6652C156.616 95.1764 168.301 88.6286 170.602 87.407C169.004 86.6877 156.055 79.1191 155.55 78.2697L155.838 77.3907Z"/><path fill="#0A0403" d="M115.664 94.0066C116.84 91.9038 121.834 85.7645 123.585 83.4307C124.553 85.1915 123.809 83.9869 123.926 85.8708C124.594 86.0293 124.704 86.085 125.304 86.3975C124.845 88.7978 125.064 102.254 124.672 102.774C123.981 103.104 123.796 103.249 123.042 103.098C122.948 102.974 122.835 102.823 122.702 102.647C122.77 98.2792 122.76 91.8155 122.767 87.6323C120.492 89.9494 118.425 92.3051 115.664 94.0066Z"/><path fill="#0A0403" d="M68.7685 73.8345C69.6075 74.028 69.476 73.8692 69.9931 74.4168C69.8221 75.0967 69.2969 76.9527 69.0099 77.5377C66.7439 82.1578 63.022 97.83 60.0579 101.064L59.1458 100.732L59.0226 100.338C59.9676 96.9293 67.2485 75.9785 68.7685 73.8345Z"/><path fill="#291001" d="M78.5101 114.49C83.6 114.262 85.3444 119.673 80.3877 122.703C75.5266 123.183 73.9405 117.198 78.5101 114.49Z"/><path fill="#FDBE5D" d="M78.4777 115.209C82.8514 115.073 84.0475 119.351 80.1978 121.916C76.6 122.586 75.2153 117.993 78.4777 115.209Z"/><path fill="#291001" d="M127.28 114.53C132.34 114.245 136.326 116.929 132.578 121.796C130.961 122.88 129.259 122.76 127.329 122.844C127.093 120.306 127.214 117.081 127.28 114.53Z"/><path fill="#FDBE5D" d="M128.234 115.19C132.439 115.141 134.605 117.648 131.857 121.318C130.998 121.796 129.105 121.983 128.055 122.138C128.053 120.177 127.89 116.965 128.234 115.19Z"/><path fill="#291001" d="M86.4348 114.554C90.5065 114.215 94.6877 115.457 90.7083 119.799C91.2658 120.646 91.8442 121.653 91.9874 122.657C91.4435 122.586 91.4852 122.426 91.0419 121.882C90.3247 120.655 89.8169 119.624 88.2433 119.62C87.3949 120.154 87.068 121.541 86.7516 122.515C86.1923 121.523 86.3222 115.909 86.4348 114.554Z"/><path fill="#FDBE5D" d="M87.2536 115.225C90.2834 115.14 92.2158 115.253 90.787 118.823C90.0394 119.05 88.1213 119.006 87.2335 119.014C87.2556 117.751 87.2527 116.489 87.2536 115.225Z"/><path fill="#291001" d="M120.146 114.37C123.865 114.509 125.208 116.013 122.81 119.178C122.042 120.192 124.346 121.373 123.598 122.657C122.881 122.229 122.824 121.824 122.381 121.024C122.049 120.361 121.073 119.493 120.317 119.392C118.909 120.008 119.514 121.135 118.737 122.556L118.36 122.527C118.033 121.632 118.181 116.143 118.321 114.92C118.97 114.394 119.222 114.508 120.146 114.37Z"/><path fill="#FDBE5D" d="M119.037 115.127C120.744 115.121 122.195 114.956 123.111 116.598C123.213 117.542 123.023 117.796 122.574 118.657C121.816 119.084 119.932 119.058 118.966 119.1C118.962 117.757 118.994 116.469 119.037 115.127Z"/><path fill="#0A0403" d="M130.029 130.176C132.229 130.124 134.02 129.857 135.649 131.627C136.409 133.309 135.236 134.414 134.006 135.381C134.564 136.011 135.561 137.116 135.603 137.973L135.286 138.041L134.792 137.659C134.14 136.724 132.984 134.733 131.772 135.109C131.121 135.937 130.933 136.912 130.653 137.927L130.3 137.637C129.771 135.864 129.96 132.09 130.029 130.176Z"/><path fill="#FDBE5D" d="M130.796 130.75C132.474 130.768 134.094 130.617 134.995 132.224C135.064 133.121 134.948 133.293 134.517 134.101C133.352 134.621 132.139 134.436 130.854 134.366C130.776 133.125 130.788 131.991 130.796 130.75Z"/><path fill="#291001" d="M105.633 114.203L105.791 114.41C105.827 114.539 105.906 114.929 105.845 115.04C105.049 116.502 103.993 122.744 102.025 122.155C101.05 120.844 100.995 119.806 100.734 118.214C100.061 119.863 99.1977 121.409 98.3585 122.979C97.429 121.325 95.0546 116.299 94.9151 114.581L95.2605 114.556C95.9041 115.162 96.4122 116.776 96.7587 117.668L98.5313 122.021L99.7547 118.197C99.5342 117.424 99.2657 116.634 99.0174 115.867L99.4634 115.884C99.3343 115.568 99.1977 115.505 98.9336 115.257L99.2162 115.281L99.0477 115.574C99.1326 115.031 99.1909 115.186 98.9691 114.786C99.4188 115.525 99.7732 116.202 100.437 116.766C101.142 116.412 101.017 115.691 101.582 114.629C102.713 115.387 100.727 117.817 101.003 118.379C101.57 119.531 101.908 120.476 102.305 121.711C103.238 120.136 104.586 116.31 105.633 114.203Z"/><path fill="#0A0403" d="M126.241 71.3817C126.802 71.6088 127.966 72.5598 128.18 73.1607C126.641 74.7915 120.427 80.1074 118.633 81.4465C118.001 81.8696 118.171 81.8962 117.531 81.8638L117.476 81.5078C117.94 80.7752 118.372 80.2751 118.976 79.6597C121.587 77.0032 124 74.3585 126.241 71.3817Z"/><path fill="#291001" d="M78.9929 133.403C79.2712 132.713 80.0167 130.791 80.5822 130.389C80.4866 131.85 78.6644 137.646 77.34 138.235C76.6558 137.629 75.8825 134.853 75.6166 133.905C74.7759 135.994 74.5005 136.625 73.2649 138.535C72.5112 136.756 69.7298 131.414 69.9178 129.915C71.299 130.602 72.0219 134.803 73.0447 136.397L73.5339 136.502C74.3472 135.688 74.614 134.454 75.0272 133.304C74.5725 132.664 73.7251 131.045 73.9046 130.259C74.4936 130.454 74.8961 131.511 75.269 132.183L75.6446 132.177C75.9477 131.548 76.1518 131.049 76.4015 130.397L76.824 130.364C77.1638 131.37 75.9696 132.904 76.0992 133.607C76.2995 134.695 77.0004 136.425 77.3584 137.628L78.9929 133.403Z"/><path fill="#291001" d="M111.48 114.325C112.556 115.049 114.801 120.887 115.052 122.306C113.414 121.249 114.42 119.784 111.797 119.899L110.861 119.783C109.517 120.322 108.97 122.302 107.858 123.92C108.597 120.546 110.329 117.607 111.48 114.325Z"/><path fill="#FDBE5D" d="M111.354 116.081C112.28 116.488 113.243 118.25 112.681 119.282C111.989 119.285 111.474 119.345 110.853 119.041C110.46 118.227 111.032 117.099 111.354 116.081Z"/><path fill="#291001" d="M97.2478 129.907C97.9769 130.377 97.88 132.791 97.9255 133.715L102.445 133.744C102.447 132.949 102.351 130.939 102.945 130.454C103.609 131.916 103.497 136.843 103.164 138.494L102.666 138.001C102.331 137.063 102.464 135.637 102.492 134.602L97.9108 134.522C97.954 135.569 97.9414 136.196 97.8602 137.242L97.8349 137.118C97.7346 137.368 97.5946 137.619 97.5947 137.89C96.8915 136.261 97.004 131.726 97.2478 129.907Z"/><path fill="#472005" d="M121.443 130.252C123.643 130.085 124.487 130.188 126.66 130.446C124.906 130.796 122.855 130.827 121.853 132.15L121.974 132.744C123.465 134.565 124.508 133.117 126.021 133.872L125.903 134.333C125.307 134.65 123.336 134.69 122.554 134.741C122.116 135.102 121.932 135.934 122.002 136.491C123.106 137.766 124.724 137.019 126.657 137.488L126.814 137.748C125.935 138.478 122.482 138.13 121.327 138.036C121.348 135.451 121.345 132.834 121.443 130.252Z"/><path fill="#291001" d="M117.155 133.738C117.179 132.876 117.118 131.314 117.538 130.61C118.211 131.597 118.072 137.038 117.807 138.374L117.399 138.014C117.111 137.168 117.197 135.426 117.198 134.464C115.427 134.485 114.008 134.522 112.248 134.688C112.311 135.579 112.479 137.141 112.338 137.967L111.936 138.156L111.608 137.827C111.311 135.758 111.485 132.274 111.536 130.057L112.189 130.342C112.625 130.981 112.313 132.838 112.229 133.712L117.155 133.738Z"/><path fill="#0A0403" d="M141.507 74.14C142.642 74.0829 145.743 73.5828 146.22 74.5708C145.314 75.2136 136.962 75.2963 135.188 75.3564C133.277 75.506 132.484 75.6598 130.618 75.0958L130.768 74.8415C132.882 74.1605 138.901 74.2348 141.507 74.14Z"/><defs><linearGradient id="gradient_4" gradientUnits="userSpaceOnUse" x1="123.69106" y1="82.03199" x2="127.79834" y2="81.167625"><stop offset="0" stop-color="#080200"/><stop offset="1" stop-color="#2C0F00"/></linearGradient></defs><path fill="url(#gradient_4)" d="M126.594 78.5491C127.433 79.1134 128.364 79.7722 129.224 80.2833C127.311 81.6732 125.505 84.0185 123.926 85.8708C123.809 83.9869 124.553 85.1915 123.585 83.4307C124.346 82.206 126.002 79.7421 126.594 78.5491Z"/><path fill="#291001" d="M68.0281 114.51C69.0647 114.477 71.9939 114.308 72.8426 114.514L73.0333 114.855C71.9217 115.907 70.2266 114.703 68.9343 115.458C68.6358 116.006 68.6872 116.584 68.6761 117.214C69.6042 119.095 71.0229 117.627 72.7798 118.633C71.8301 119.03 69.8251 118.938 68.7515 118.936C68.8352 120.529 68.85 120.953 68.5205 122.51L68.3739 122.448C67.8037 119.632 67.9535 117.358 68.0281 114.51Z"/><path fill="#0A0403" d="M138.448 83.9148C137.565 84.2703 129.18 84.4714 128.328 84.1935L128.125 83.7933L128.432 83.3928C130.295 83.0993 137.553 83.0948 139.592 83.1947C139.128 83.5159 138.984 83.6503 138.407 83.7465L138.448 83.9148Z"/><path fill="#291001" d="M87.3333 130.364C88.5453 130.12 92.7824 130.031 93.8889 130.524C93.2517 130.89 92.1365 130.828 91.3617 130.849C91.2893 132.397 91.3088 134.008 91.3058 135.563C91.3315 136.407 91.498 137.575 90.851 138.149C90.1729 137.251 90.4361 132.336 90.4595 130.999C89.2847 130.948 88.2835 131.017 87.3333 130.364Z"/><path fill="#291001" d="M84.1733 129.874C85.3859 130.67 84.8161 136.745 84.7202 138.393C83.564 137.893 83.9789 131.164 84.1733 129.874Z"/><path fill="#0A0403" d="M93.0601 81.0756C93.4399 81.6577 93.4668 84.3033 93.1338 84.6916C92.4436 84.2834 91.7074 84.9904 90.3824 84.5703C90.7694 83.9103 92.1771 83.6462 92.9713 82.98L93.0601 81.0756Z"/><path fill="#0A0403" fill-opacity="0.98823529" d="M37.9481 156.059C31.3699 152.06 24.6598 144.92 20.5733 138.492C8.68631 119.796 10.5958 95.2645 17.7067 75.1878C21.8015 63.6266 27.4098 56.2449 37.6963 49.7909L37.9513 50.5161C37.4904 50.7997 36.1854 51.4857 36.0401 51.8667C30.416 55.2814 24.7156 61.4462 21.8399 67.4514C9.39874 93.4317 7.54541 128.836 30.8573 149.495C33.1302 151.509 35.9626 153.833 37.9481 156.059Z"/><path fill="#0A0403" d="M149.022 28.7023C160.365 29.7465 170.908 32.4826 178.597 42.0198C191.308 57.7859 190.835 80.6008 188.031 99.6308C187.558 102.838 186.729 105.721 185.666 108.73L185.146 107.843C185.713 106.558 186.088 105.055 186.373 103.685C190.565 84.88 190.993 58.7454 178.145 42.8772C170.375 33.2808 160.584 30.7089 148.896 29.7059C148.226 29.5869 147.429 29.5231 146.929 29.0956C147.415 28.709 148.368 28.7402 149.022 28.7023Z"/><path fill="#553F2D" d="M139.249 27.6796C142.57 28.3186 146.21 28.1831 149.022 28.7023C148.368 28.7402 147.415 28.709 146.929 29.0956C147.429 29.5231 148.226 29.5869 148.896 29.7059C147.53 29.6718 144.508 29.3978 143.494 30.0212L143.484 29.7032C142.363 28.9235 133.678 29.3415 131.201 29.0196C132.329 28.835 134.895 28.8458 136.144 28.8196C135.631 28.6199 130.699 28.4034 129.681 28.2851C132.801 28.0701 136.253 28.6621 139.249 27.6796Z"/></svg>